<?xml version="1.0" encoding="UTF-8" standalone="no"?>
<svg
        xmlns:dc="http://purl.org/dc/elements/1.1/"
        xmlns:cc="http://creativecommons.org/ns#"
        xmlns:rdf="http://www.w3.org/1999/02/22-rdf-syntax-ns#"
        xmlns="http://www.w3.org/2000/svg"
        xmlns:sodipodi="http://sodipodi.sourceforge.net/DTD/sodipodi-0.dtd"
        xmlns:inkscape="http://www.inkscape.org/namespaces/inkscape"
        sodipodi:docname="maille.svg"
        inkscape:version="1.0 (4035a4fb49, 2020-05-01)"
        id="svg316"
        version="1.1"
        viewBox="0 0 26.458333 26.458334"
        height="100"
        width="100">
  <defs
     id="defs310" />
  <sodipodi:namedview
     inkscape:window-maximized="0"
     inkscape:window-y="0"
     inkscape:window-x="32"
     inkscape:window-height="1030"
     inkscape:window-width="1778"
     units="px"
     showgrid="true"
     inkscape:document-rotation="0"
     inkscape:current-layer="layer1"
     inkscape:document-units="mm"
     inkscape:cy="41.907206"
     inkscape:cx="16.741603"
     inkscape:zoom="5.6"
     inkscape:pageshadow="2"
     inkscape:pageopacity="0.0"
     borderopacity="1.0"
     bordercolor="#666666"
     pagecolor="#ffffff"
     id="base">
    <inkscape:grid
       id="grid335"
       type="xygrid" />
  </sodipodi:namedview>
  <metadata
     id="metadata313">
    <rdf:RDF>
      <cc:Work
         rdf:about="">
        <dc:format>image/svg+xml</dc:format>
        <dc:type
           rdf:resource="http://purl.org/dc/dcmitype/StillImage" />
        <dc:title></dc:title>
      </cc:Work>
    </rdf:RDF>
  </metadata>
  <g
     id="layer1"
     inkscape:groupmode="layer"
     inkscape:label="Calque 1">
    <ellipse
       transform="matrix(0.9250218,0.37991403,-0.30697721,0.95171687,0,0)"
       ry="4.4528608"
       rx="1.5585212"
       cy="4.1011777"
       cx="4.3387847"
       id="path318"
       style="fill:#000000;stroke-width:0.148118" />
    <ellipse
       style="fill:#000000;stroke-width:0.148118"
       id="path318-8"
       cx="6.7027755"
       cy="11.224649"
       rx="1.5585212"
       ry="4.4528608"
       transform="matrix(0.9250218,0.37991402,-0.30697721,0.95171687,0,0)" />
    <ellipse
       style="fill:#000000;stroke-width:0.148118"
       id="path318-3"
       cx="9.0609522"
       cy="18.176689"
       rx="1.5585212"
       ry="4.4528608"
       transform="matrix(0.9250218,0.37991402,-0.30697721,0.95171687,0,0)" />
    <ellipse
       style="fill:#000000;stroke-width:0.148118"
       id="path318-9"
       cx="-4.8740749"
       cy="7.7848654"
       rx="1.5585212"
       ry="4.4528608"
       transform="matrix(-0.9250218,0.37991402,0.30697721,0.95171687,0,0)" />
    <ellipse
       transform="matrix(-0.9250218,0.37991402,0.30697721,0.95171687,0,0)"
       ry="4.4528608"
       rx="1.5585212"
       cy="14.908338"
       cx="-2.5100842"
       id="path318-8-9"
       style="fill:#000000;stroke-width:0.148118" />
    <ellipse
       transform="matrix(-0.9250218,0.37991402,0.30697721,0.95171687,0,0)"
       ry="4.4528608"
       rx="1.5585212"
       cy="21.860374"
       cx="-0.15190706"
       id="path318-3-1"
       style="fill:#000000;stroke-width:0.148118" />
    <ellipse
       style="fill:#000000;stroke-width:0.148118"
       id="path318-2"
       cx="12.350903"
       cy="1.002123"
       rx="1.5585212"
       ry="4.4528608"
       transform="matrix(0.9250218,0.37991402,-0.30697721,0.95171687,0,0)" />
    <ellipse
       transform="matrix(0.9250218,0.37991402,-0.30697721,0.95171687,0,0)"
       ry="4.4528608"
       rx="1.5585212"
       cy="8.1255951"
       cx="14.714893"
       id="path318-8-8"
       style="fill:#000000;stroke-width:0.148118" />
    <ellipse
       transform="matrix(0.9250218,0.37991402,-0.30697721,0.95171687,0,0)"
       ry="4.4528608"
       rx="1.5585212"
       cy="15.077633"
       cx="17.073071"
       id="path318-3-0"
       style="fill:#000000;stroke-width:0.148118" />
    <ellipse
       transform="matrix(-0.9250218,0.37991402,0.30697721,0.95171687,0,0)"
       ry="4.4528608"
       rx="1.5585212"
       cy="11.059265"
       cx="-12.828003"
       id="path318-9-9"
       style="fill:#000000;stroke-width:0.148118" />
    <ellipse
       style="fill:#000000;stroke-width:0.148118"
       id="path318-8-9-0"
       cx="-10.464013"
       cy="18.182739"
       rx="1.5585212"
       ry="4.4528608"
       transform="matrix(-0.9250218,0.37991402,0.30697721,0.95171687,0,0)" />
    <ellipse
       style="fill:#000000;stroke-width:0.148118"
       id="path318-3-1-3"
       cx="-8.1058359"
       cy="25.134777"
       rx="1.5585212"
       ry="4.4528608"
       transform="matrix(-0.9250218,0.37991402,0.30697721,0.95171687,0,0)" />
    <ellipse
       style="fill:#000000;stroke-width:0.148118"
       id="path318-6"
       cx="20.364481"
       cy="-2.2464454"
       rx="1.5585212"
       ry="4.4528608"
       transform="matrix(0.9250218,0.37991402,-0.30697721,0.95171687,0,0)" />
    <ellipse
       transform="matrix(0.9250218,0.37991402,-0.30697721,0.95171687,0,0)"
       ry="4.4528608"
       rx="1.5585212"
       cy="4.8770266"
       cx="22.72847"
       id="path318-8-7"
       style="fill:#000000;stroke-width:0.148118" />
    <ellipse
       transform="matrix(0.9250218,0.37991402,-0.30697721,0.95171687,0,0)"
       ry="4.4528608"
       rx="1.5585212"
       cy="11.829065"
       cx="25.086649"
       id="path318-3-9"
       style="fill:#000000;stroke-width:0.148118" />
    <ellipse
       transform="matrix(-0.9250218,0.37991402,0.30697721,0.95171687,0,0)"
       ry="4.4528608"
       rx="1.5585212"
       cy="14.220161"
       cx="-20.870676"
       id="path318-9-4"
       style="fill:#000000;stroke-width:0.148118" />
    <ellipse
       style="fill:#000000;stroke-width:0.148118"
       id="path318-8-9-2"
       cx="-18.506685"
       cy="21.343634"
       rx="1.5585212"
       ry="4.4528608"
       transform="matrix(-0.9250218,0.37991402,0.30697721,0.95171687,0,0)" />
    <ellipse
       style="fill:#000000;stroke-width:0.148118"
       id="path318-3-1-0"
       cx="-16.148508"
       cy="28.295671"
       rx="1.5585212"
       ry="4.4528608"
       transform="matrix(-0.9250218,0.37991402,0.30697721,0.95171687,0,0)" />
  </g>
</svg>
