<?xml version="1.0" encoding="UTF-8"?>
<svg viewBox="5.258 5.548 110.547 110.539" xmlns="http://www.w3.org/2000/svg">
 <path d="m93.523,16.082c1.734,0 3.125,1.398 3.125,3.102v10.633h-68.539v-10.61c0-1.703 1.391-3.094 3.102-3.094l62.312-.031zm-45.242,10.336c1.875,0 3.406-1.555 3.406-3.438s-1.531-3.414-3.406-3.414-3.406,1.539-3.406,3.414 1.523,3.438 3.406,3.438zm-10.039,0c1.906,0 3.406-1.555 3.406-3.438s-1.5-3.414-3.406-3.414c-1.875,0-3.406,1.539-3.406,3.414s1.531,3.438 3.406,3.438z"/>
 <path d="m27.938 106.54v-68.805c0-1.711 1.398-3.102 3.102-3.102h62.336c1.711 0 3.102 1.391 3.102 3.102v68.828l-68.54-0.023zm33.914-15.648c12.188 0 22.078-9.891 22.078-22.078s-9.891-22.079-22.078-22.079c-12.195 0-22.07 9.891-22.07 22.078s9.874 22.079 22.07 22.079z"/>
 <path d="m79.727,63.16c.469,1.609.711,3.305.711,5.078 0,10.234-8.328,18.531-18.562,18.531-10.25,0-18.555-8.297-18.555-18.531 0-1.906.297-3.734.805-5.453v.031c1.188,1.281 2.875,2.094 4.773,2.094 1.648,0 3.125-.594 4.273-1.617h-.023c1.156,1.023 2.664,1.617 4.297,1.617 1.695,0 3.25-.648 4.406-1.75v.023c1.148,1.079 2.687,1.727 4.398,1.727 1.758,0 3.375-.695 4.516-1.828v.023c1.148,1.133 2.734,1.805 4.5,1.805 1.703,0 3.289-.672 4.438-1.773l.023.023z"/>
 <line x1="10" y1="110" x2="110" y2="10" stroke="red" stroke-width="15"/>
</svg>
