<?xml version="1.0" encoding="UTF-8" standalone="no"?>
<svg
   xmlns:dc="http://purl.org/dc/elements/1.1/"
   xmlns:cc="http://creativecommons.org/ns#"
   xmlns:rdf="http://www.w3.org/1999/02/22-rdf-syntax-ns#"
   xmlns:svg="http://www.w3.org/2000/svg"
   xmlns="http://www.w3.org/2000/svg"
   xmlns:sodipodi="http://sodipodi.sourceforge.net/DTD/sodipodi-0.dtd"
   xmlns:inkscape="http://www.inkscape.org/namespaces/inkscape"
   viewBox="0 0 46.129977 45.982926"
   sodipodi:docname="non-tisse.svg"
   inkscape:version="1.0 (4035a4fb49, 2020-05-01)"
   version="1.1"
   id="svg2"
   height="99.999863"
   width="91.546776">
  <defs
     id="defs4" />
  <sodipodi:namedview
     viewbox-width="100"
     fit-margin-bottom="0"
     fit-margin-right="0"
     fit-margin-left="0"
     fit-margin-top="0"
     lock-margins="true"
     scale-x="1"
     inkscape:document-rotation="0"
     inkscape:window-maximized="1"
     inkscape:window-y="-9"
     inkscape:window-x="-9"
     inkscape:window-height="1001"
     inkscape:window-width="1920"
     inkscape:guide-bbox="true"
     showguides="true"
     showgrid="false"
     inkscape:current-layer="layer2"
     inkscape:document-units="px"
     inkscape:cy="110.55472"
     inkscape:cx="-10.248107"
     inkscape:zoom="1.8"
     inkscape:pageshadow="2"
     inkscape:pageopacity="0.0"
     borderopacity="1.0"
     bordercolor="#666666"
     pagecolor="#ffffff"
     id="base" />
  <metadata
     id="metadata7">
    <rdf:RDF>
      <cc:Work
         rdf:about="">
        <dc:format>image/svg+xml</dc:format>
        <dc:type
           rdf:resource="http://purl.org/dc/dcmitype/StillImage" />
        <dc:title></dc:title>
      </cc:Work>
    </rdf:RDF>
  </metadata>
  <g
     transform="translate(-2.2184088,-835.00087)"
     id="layer1"
     inkscape:groupmode="layer"
     inkscape:label="Calque 1" />
  <g
     transform="translate(-2.2184088,-835.00087)"
     inkscape:label="Calque 3"
     id="layer2"
     inkscape:groupmode="layer">
    <path
       sodipodi:nodetypes="cccccccccccccccccccccccccccc"
       inkscape:connector-curvature="0"
       id="path3823"
       d="m 40.256971,880.51101 c 1.067917,-1.33758 2.159653,-2.82128 3.265357,-4.25023 0.742459,-1.48575 3.886993,-3.54254 1.069867,-4.37418 -1.66025,-0.68823 -2.776,-2.40041 -3.767725,-3.92518 -2.108343,-5.13732 -2.230828,-13.36361 0.992005,-17.77211 0.786439,-1.42804 2.413966,-2.24444 3.751406,-3.00008 1.479117,-0.65753 -1.41518,-2.46759 -1.661239,-3.52197 -1.002153,-1.38708 -2.002337,-2.61474 -3.088356,-4.00902 -1.250357,-1.23237 -2.91637,1.30315 -4.686618,1.23571 -2.064773,0.35744 -4.03597,-0.68268 -5.202918,-2.57063 -0.885543,-0.6511 -0.275538,-2.78746 -1.676738,-2.34697 -2.652071,0.0358 -5.309714,-0.0921 -7.957242,0.0957 -0.951143,1.15604 -1.468899,3.6374 -3.298289,4.11837 -1.875255,1.22998 -4.534234,0.92957 -6.326474,-0.3914 -0.713154,-0.98859 -1.293312,-0.69052 -1.8394317,0.005 -1.8575492,2.59814 -2.9721707,4.31495 -5.1040178,7.20278 1.620425,0.64949 3.4070857,1.46816 4.3484613,3.23416 3.3368122,5.21722 3.0565852,14.57171 -0.3176642,19.32059 -1.0924487,1.60046 -2.9470745,2.13633 -4.1746437,3.39095 1.3275793,1.78958 2.5954031,3.61361 3.979209,5.3361 0.9327345,1.51263 2.1866351,3.38892 3.4017461,0.94345 1.439429,-1.54235 3.440475,-2.36358 5.42171,-2.44977 1.985737,-0.12662 4.025649,0.54787 5.512365,2.02264 0.722238,2.32111 3.758239,2.68086 4.565819,0.18388 1.412345,-1.49721 3.339377,-2.23351 5.264945,-2.19287 2.061909,0.012 4.177283,0.76924 5.725168,2.32781 0.594441,0.28287 1.113352,2.33887 1.803307,1.38764 z"
       style="fill:#ffffff;stroke:#000000;stroke-width:4.64466;stroke-linecap:round;stroke-linejoin:round;stroke-miterlimit:4;stroke-dasharray:none;stroke-dashoffset:0;stroke-opacity:1" />
  </g>
</svg>
